<svg xmlns="http://www.w3.org/2000/svg" xmlns:xlink="http://www.w3.org/1999/xlink" width="388.321" height="167.262" viewBox="0 0 388.321 167.262">
  <defs>
    <clipPath id="clip-path">
      <rect id="Rettangolo_398" data-name="Rettangolo 398" width="388.321" height="167.262" fill="#fff"/>
    </clipPath>
  </defs>
  <g id="Raggruppa_440" data-name="Raggruppa 440" clip-path="url(#clip-path)">
    <path id="Tracciato_503" data-name="Tracciato 503" d="M26.278,147.558l-5.54-16.279a.379.379,0,0,1,.39-.561h1.539a.5.5,0,0,1,.536.39l4.442,13.618,4.466-13.618a.5.5,0,0,1,.537-.39h1.66a.5.5,0,0,1,.536.39l4.442,13.618,4.466-13.618a.5.5,0,0,1,.538-.39H45.8a.379.379,0,0,1,.39.561l-5.54,16.279a.55.55,0,0,1-.561.39H38.456a.5.5,0,0,1-.536-.39l-4.443-13.5-4.465,13.5a.5.5,0,0,1-.538.39H26.84a.55.55,0,0,1-.561-.39" transform="translate(3.058 19.314)" fill="#fff"/>
    <path id="Tracciato_504" data-name="Tracciato 504" d="M63.547,147.581l-1.463-2.9H50.662l-1.49,2.928a.557.557,0,0,1-.561.342H46.977c-.366,0-.536-.244-.366-.585l8.348-16.3a.556.556,0,0,1,.559-.341h1.709a.559.559,0,0,1,.561.341l8.322,16.3c.171.341,0,.585-.366.585H64.109a.581.581,0,0,1-.562-.367m-2.489-4.953L56.4,133.305l-4.71,9.323Z" transform="translate(6.877 19.314)" fill="#fff"/>
    <path id="Tracciato_505" data-name="Tracciato 505" d="M72.867,147.46V133.036H66.986a.438.438,0,0,1-.488-.488v-1.343a.438.438,0,0,1,.488-.488H81.165a.438.438,0,0,1,.488.488v1.343a.438.438,0,0,1-.488.488H75.283V147.46a.438.438,0,0,1-.488.488H73.356a.439.439,0,0,1-.489-.488" transform="translate(9.825 19.314)" fill="#fff"/>
    <path id="Tracciato_506" data-name="Tracciato 506" d="M85.861,147.46V131.206a.438.438,0,0,1,.489-.488H99.944a.437.437,0,0,1,.487.488v1.343a.437.437,0,0,1-.487.488H88.253v5h7.956a.437.437,0,0,1,.488.488V139.8a.438.438,0,0,1-.488.488H88.253v5.345H99.944a.437.437,0,0,1,.487.488v1.343a.438.438,0,0,1-.487.488H86.35a.439.439,0,0,1-.489-.488" transform="translate(12.686 19.314)" fill="#fff"/>
    <path id="Tracciato_507" data-name="Tracciato 507" d="M117.391,142.579l3.345,4.784c.22.316.073.585-.318.585h-1.683a.664.664,0,0,1-.588-.318l-3.27-4.807h-7.346v4.637a.439.439,0,0,1-.488.488h-1.415a.439.439,0,0,1-.489-.488V131.206a.438.438,0,0,1,.489-.488h8.833c5.127,0,6.835,1.88,6.835,5.955v.293c0,3.124-.977,5-3.906,5.614m1.49-5.882c0-3-1.124-3.66-4.565-3.66h-6.784v7.491h6.784c3.418,0,4.565-.634,4.565-3.588Z" transform="translate(15.535 19.314)" fill="#fff"/>
    <path id="Tracciato_508" data-name="Tracciato 508" d="M135.409,142.019v-5.345c0-3.808,1.585-5.956,5.784-5.956h6.124c4.2,0,5.786,2.147,5.786,5.956v5.345c0,3.782-1.587,5.929-5.786,5.929h-6.124c-4.2,0-5.784-2.147-5.784-5.929m11.908,3.611c2.464,0,3.393-.78,3.393-3.539V136.6c0-2.782-.9-3.563-3.393-3.563h-6.124c-2.465,0-3.393.78-3.393,3.563v5.492c0,2.758.952,3.539,3.393,3.539Z" transform="translate(20.007 19.314)" fill="#fff"/>
    <path id="Tracciato_509" data-name="Tracciato 509" d="M157.685,147.46V131.206a.438.438,0,0,1,.489-.488h1.537a.742.742,0,0,1,.611.293l11.1,13.447V131.206a.438.438,0,0,1,.488-.488h1.415a.438.438,0,0,1,.488.488V147.46a.438.438,0,0,1-.488.488h-1.586a.739.739,0,0,1-.609-.293l-11.056-13.375v13.18a.438.438,0,0,1-.487.488h-1.416a.439.439,0,0,1-.489-.488" transform="translate(23.299 19.314)" fill="#fff"/>
    <path id="Tracciato_510" data-name="Tracciato 510" d="M188.653,147.46V131.206a.439.439,0,0,1,.489-.488H199.66c4.173,0,5.759,2,5.759,6.469v4.391c0,4.442-1.586,6.37-5.759,6.37H189.142a.438.438,0,0,1-.489-.488m10.787-1.805c2.636,0,3.613-.806,3.613-4.1v-4.367c0-3.3-.952-4.15-3.613-4.15h-8.395v12.618Z" transform="translate(27.874 19.314)" fill="#fff"/>
    <path id="Tracciato_511" data-name="Tracciato 511" d="M210.122,147.46V131.206a.438.438,0,0,1,.489-.488H224.2a.437.437,0,0,1,.487.488v1.343a.437.437,0,0,1-.487.488H212.514v5h7.956a.437.437,0,0,1,.488.488V139.8a.438.438,0,0,1-.488.488h-7.956v5.345H224.2a.437.437,0,0,1,.487.488v1.343a.438.438,0,0,1-.487.488H210.611a.439.439,0,0,1-.489-.488" transform="translate(31.046 19.314)" fill="#fff"/>
    <path id="Tracciato_512" data-name="Tracciato 512" d="M229.4,147.46V131.206a.438.438,0,0,1,.489-.488h1.757a.6.6,0,0,1,.585.318l6.981,11.177,6.978-11.177a.6.6,0,0,1,.588-.318h1.731a.439.439,0,0,1,.49.488V147.46a.44.44,0,0,1-.49.488h-1.415a.439.439,0,0,1-.488-.488V134.672l-6.322,9.932a.611.611,0,0,1-.584.318h-1a.591.591,0,0,1-.585-.318l-6.322-9.957V147.46a.438.438,0,0,1-.487.488H229.89a.439.439,0,0,1-.489-.488" transform="translate(33.895 19.314)" fill="#fff"/>
    <path id="Tracciato_513" data-name="Tracciato 513" d="M269.471,147.581l-1.463-2.9H256.586l-1.49,2.928a.557.557,0,0,1-.561.342H252.9c-.366,0-.536-.244-.366-.585l8.348-16.3a.556.556,0,0,1,.559-.341h1.709a.559.559,0,0,1,.561.341l8.322,16.3c.171.341,0,.585-.366.585h-1.634a.581.581,0,0,1-.562-.367m-2.489-4.953-4.661-9.323-4.71,9.323Z" transform="translate(37.303 19.314)" fill="#fff"/>
    <path id="Tracciato_514" data-name="Tracciato 514" d="M275.568,147.46V131.206a.438.438,0,0,1,.489-.488h1.537a.742.742,0,0,1,.611.293l11.1,13.447V131.206a.438.438,0,0,1,.488-.488h1.415a.438.438,0,0,1,.488.488V147.46a.438.438,0,0,1-.488.488h-1.586a.739.739,0,0,1-.609-.293L277.96,134.281v13.18a.438.438,0,0,1-.487.488h-1.416a.439.439,0,0,1-.489-.488" transform="translate(40.716 19.314)" fill="#fff"/>
    <path id="Tracciato_515" data-name="Tracciato 515" d="M296.76,147.46V131.206a.439.439,0,0,1,.489-.488h10.518c4.173,0,5.759,2,5.759,6.469v4.391c0,4.442-1.586,6.37-5.759,6.37H297.249a.438.438,0,0,1-.489-.488m10.787-1.805c2.636,0,3.613-.806,3.613-4.1v-4.367c0-3.3-.952-4.15-3.613-4.15h-8.395v12.618Z" transform="translate(43.848 19.314)" fill="#fff"/>
    <path id="Tracciato_516" data-name="Tracciato 516" d="M320.808,139.659v-8.4h-3.425a.255.255,0,0,1-.283-.285v-.782a.255.255,0,0,1,.283-.285h8.257a.256.256,0,0,1,.285.285v.782a.256.256,0,0,1-.285.285h-3.425v8.4a.255.255,0,0,1-.284.285h-.839a.255.255,0,0,1-.285-.285" transform="translate(46.853 19.195)" fill="#161f60"/>
    <path id="Tracciato_517" data-name="Tracciato 517" d="M328.389,139.659v-9.466a.255.255,0,0,1,.285-.285H329.7a.347.347,0,0,1,.342.186L334.1,136.6l4.063-6.509a.345.345,0,0,1,.341-.186h1.009a.256.256,0,0,1,.285.285v9.466a.256.256,0,0,1-.285.285h-.823a.255.255,0,0,1-.285-.285v-7.447L334.727,138a.36.36,0,0,1-.341.185H333.8a.349.349,0,0,1-.342-.185l-3.68-5.8v7.462a.256.256,0,0,1-.285.285h-.823a.255.255,0,0,1-.285-.285" transform="translate(48.521 19.195)" fill="#161f60"/>
    <path id="Tracciato_518" data-name="Tracciato 518" d="M154.806,92.224l-11.07,32.529a3.961,3.961,0,0,1-4.044,2.812H127.913a3.589,3.589,0,0,1-3.867-2.812L92.051,27.535,59.879,124.753a3.589,3.589,0,0,1-3.868,2.812H44.233a3.961,3.961,0,0,1-4.044-2.812L.283,7.495C-.6,5.033.635,3.451,3.1,3.451H14.172a3.589,3.589,0,0,1,3.867,2.813l31.995,98.1,32.172-98.1a3.588,3.588,0,0,1,3.868-2.813H98.027A3.588,3.588,0,0,1,101.9,6.264l32,98.1,9.385-28.616a32.1,32.1,0,0,0,7.8,12.75Zm27.447-80.648,1.389-4.081c.879-2.462-.351-4.044-2.813-4.044h-10.9a3.589,3.589,0,0,0-3.868,2.813L155.569,38.259ZM321.318,3.451H245.549a3.156,3.156,0,0,0-3.516,3.516v5.114l17.228,17.227V20.152h60.475c19.162,0,26.018,6.153,26.018,29.885V81.506c0,23.733-7.032,29.533-26.018,29.533H259.262v-9.1l-17.228,17.242v4.871a3.156,3.156,0,0,0,3.516,3.516h75.769c30.062,0,41.489-13.887,41.489-45.884V50.037c0-32.17-11.427-46.586-41.489-46.586" transform="translate(0 0.51)" fill="#fff"/>
    <path id="Tracciato_519" data-name="Tracciato 519" d="M187.415,28.185c.6.683,1.205,1.364,1.792,2.058a131.767,131.767,0,0,0-21.028,39.308l-.108.456v0a128.242,128.242,0,0,0-6.463,40.892l-26.362-26.4a28.258,28.258,0,0,1,.014-39.9l33.984-33.983q1.567,1.279,3.1,2.6c.619.534,1.253,1.051,1.864,1.6q2.6,2.316,5.091,4.747c.127.124.263.24.389.365q2.667,2.619,5.189,5.366c.541.585,1.051,1.194,1.582,1.787.324.363.637.733.957,1.1" transform="translate(18.766 1.569)" fill="#33a1fd"/>
    <path id="Tracciato_520" data-name="Tracciato 520" d="M243.7,44.7,207.262,8.266a28.223,28.223,0,0,0-39.914,0l-.953.953a155.892,155.892,0,0,1,21.281,21.209,150.739,150.739,0,0,1,21.166,34.582,24.25,24.25,0,0,1,1.3,13.251Z" transform="translate(24.586)" fill="#2176ff"/>
    <path id="Tracciato_521" data-name="Tracciato 521" d="M160.853,110.569l7.318,7.32a28.044,28.044,0,0,0,19.956,8.267h.007a28.042,28.042,0,0,0,19.961-8.275l37.913-37.945a28.266,28.266,0,0,0,1.4-38.388l-41.456,41.5a23.611,23.611,0,0,1-4.151,4.087,24.179,24.179,0,0,1-37.428-11.223,124.89,124.89,0,0,0-3.524,34.66" transform="translate(23.753 6.139)" fill="#0114ac"/>
  </g>
</svg>
