<svg xmlns="http://www.w3.org/2000/svg" xmlns:xlink="http://www.w3.org/1999/xlink" width="269.12" height="118.132" viewBox="0 0 269.12 118.132">
  <defs>
    <clipPath id="clip-path">
      <rect id="Rettangolo_9" data-name="Rettangolo 9" width="269.12" height="118.132" fill="#fff"/>
    </clipPath>
  </defs>
  <g id="Raggruppa_333" data-name="Raggruppa 333" transform="translate(0 0)">
    <g id="Raggruppa_5" data-name="Raggruppa 5" transform="translate(0 0)" clip-path="url(#clip-path)">
      <path id="Tracciato_11" data-name="Tracciato 11" d="M194.986,2.3H143a2.166,2.166,0,0,0-2.412,2.414v3.51l11.821,11.828V13.767H193.9c13.148,0,17.853,4.223,17.853,20.518v21.6c0,16.293-4.826,20.275-17.853,20.275H152.405v-6.25L140.584,81.753V85.1A2.166,2.166,0,0,0,143,87.51h51.99c20.627,0,28.469-9.535,28.469-31.5V34.285c0-22.087-7.842-31.984-28.469-31.984" transform="translate(25.49 0.418)" fill="#fff"/>
      <path id="Tracciato_9" data-name="Tracciato 9" d="M108.67,7.879l.953-2.8c.6-1.689-.241-2.775-1.93-2.775h-7.479a2.462,2.462,0,0,0-2.653,1.93L90.361,26.2Z" transform="translate(16.384 0.418)" fill="#fff"/>
      <path id="Tracciato_8" data-name="Tracciato 8" d="M103.664,60.685a22.06,22.06,0,0,1-5.355-8.754L91.87,71.578,69.916,4.231A2.463,2.463,0,0,0,67.262,2.3h-8.2a2.462,2.462,0,0,0-2.654,1.93L34.332,71.578,12.377,4.231A2.462,2.462,0,0,0,9.724,2.3h-7.6C.435,2.3-.41,3.386.194,5.076l27.382,80.5a2.718,2.718,0,0,0,2.775,1.93h8.081a2.462,2.462,0,0,0,2.654-1.93L63.16,18.836,85.115,85.579a2.462,2.462,0,0,0,2.653,1.93h8.083a2.716,2.716,0,0,0,2.774-1.93l7.6-22.332Z" transform="translate(0 0.418)" fill="#fff"/>
      <text id="WATER_ON_DEMAND" data-name="WATER ON DEMAND" transform="translate(16.362 110.892)" fill="#fff" font-size="17" font-family="Kallisto-Medium, Kallisto" font-weight="500"><tspan x="0" y="0" letter-spacing="0.164em">W</tspan><tspan y="0" letter-spacing="0.108em">A</tspan><tspan y="0" letter-spacing="0.21em">TE</tspan><tspan y="0" letter-spacing="0.209em">R</tspan><tspan y="0" letter-spacing="0.21em"> </tspan><tspan y="0" letter-spacing="0.209em">O</tspan><tspan y="0" letter-spacing="0.21em">N DEM</tspan><tspan y="0" letter-spacing="0.209em">A</tspan><tspan y="0" letter-spacing="0.21em">N</tspan><tspan y="0">D</tspan></text>
      <text id="TM" transform="translate(248.945 102.153)" fill="#fff" font-size="5" font-family="Kallisto-Medium, Kallisto" font-weight="500"><tspan x="0" y="0" letter-spacing="0.21em">T</tspan><tspan y="0">M</tspan></text>
      <path id="Tracciato_10" data-name="Tracciato 10" d="M153.673,62.733Z" transform="translate(24.221 3.575)" fill="#fff"/>
      <path id="Tracciato_14" data-name="Tracciato 14" d="M107.236,75.084l5.021,5.026a19.237,19.237,0,0,0,13.694,5.676h0a19.232,19.232,0,0,0,13.7-5.682l26.014-26.051a19.412,19.412,0,0,0,.964-26.354L138.185,56.188a16.244,16.244,0,0,1-2.848,2.806,16.587,16.587,0,0,1-25.682-7.705,85.786,85.786,0,0,0-2.418,23.8" transform="translate(19.433 5.04)" fill="#fff"/>
      <path id="Tracciato_13" data-name="Tracciato 13" d="M163.975,30.691l-25-25.016a19.359,19.359,0,0,0-27.388,0l-.653.654a107.076,107.076,0,0,1,14.6,14.561,103.485,103.485,0,0,1,14.523,23.742,16.662,16.662,0,0,1,.9,9.1Z" transform="translate(20.113 0)" fill="#fff"/>
      <path id="Tracciato_12" data-name="Tracciato 12" d="M126.121,19.138c.412.469.827.936,1.23,1.412a90.484,90.484,0,0,0-14.429,26.987l-.074.313v0a88.075,88.075,0,0,0-4.435,28.074L90.325,57.805a19.409,19.409,0,0,1,.009-27.394L113.652,7.08q1.076.879,2.126,1.787c.425.368.86.722,1.279,1.1q1.786,1.59,3.494,3.26c.086.085.18.164.266.249q1.83,1.8,3.56,3.684c.371.4.722.82,1.086,1.227.222.249.437.5.657.755" transform="translate(15.352 1.288)" fill="#fff"/>
    </g>
  </g>
</svg>
